<svg fill="none"> 

<symbol id="Arrow---Left-2" viewBox="0 0 24 24" version="1.1" xmlns="http://www.w3.org/2000/svg" xmlns:xlink="http://www.w3.org/1999/xlink">
    <title>Iconly/Curved/Arrow - Left 2</title>
     <g fill="none" stroke-width="1.5" stroke-linecap="round" stroke-linejoin="round">
        <g>
            <path d="M8.18752 12.0218H20.2285"/>
            <path d="M11.1152 9.10577L8.18723 12.0218L11.1152 14.9378"/>
            <path opacity="0.4" d="M15.4956 7.38897V6.45597C15.4956 4.42097 13.8466 2.77197 11.8106 2.77197H6.92661C4.89661 2.77197 3.25161 4.41697 3.25161 6.44697V17.587C3.25161 19.622 4.90161 21.272 6.93661 21.272H11.8216C13.8506 21.272 15.4956 19.626 15.4956 17.597V16.655"/>
        </g>
    </g>
</symbol>
<symbol id="circle" viewBox="0 0 3 3" version="1.1" xmlns="http://www.w3.org/2000/svg" xmlns:xlink="http://www.w3.org/1999/xlink">
    <title>Iconly/Curved/Arrow - Circle</title>
     <g fill="none" stroke-width="0.7">
        <g>
            <circle r="1.15" transform="matrix(-1 0 0 1 1.5 1.5)"/>
        </g>
    </g>
</symbol>
<symbol id="Search" viewBox="0 0 24 24" version="1.1" xmlns="http://www.w3.org/2000/svg" xmlns:xlink="http://www.w3.org/1999/xlink">
    <title>Iconly/Curved/Arrow - Search</title>
     <g fill="none" stroke-width="1.5" stroke-linecap="round" stroke-linejoin="round">
        <g>
            <circle id="Ellipse_739" cx="11.7666" cy="11.7666" r="8.98856"/>
            <path id="Line_181" opacity="0.4" d="M18.0183 18.4851L21.5423 22"/>
        </g>
    </g>
</symbol>
<symbol id="cube" viewBox="0 0 20 20" version="1.1" xmlns="http://www.w3.org/2000/svg" xmlns:xlink="http://www.w3.org/1999/xlink">
    <title>Iconly/Curved/Arrow - cube</title>
     <g fill="none" stroke-width="1.5" stroke-linecap="round" stroke-linejoin="round">
        <g>
            <path d="M17.5 13.3333V6.66666C17.4997 6.37439 17.4225 6.08733 17.2763 5.83429C17.13 5.58125 16.9198 5.37113 16.6667 5.22499L10.8333 1.89166C10.58 1.74538 10.2926 1.66837 10 1.66837C9.70744 1.66837 9.42003 1.74538 9.16667 1.89166L3.33333 5.22499C3.08022 5.37113 2.86998 5.58125 2.72372 5.83429C2.57745 6.08733 2.5003 6.37439 2.5 6.66666V13.3333C2.5003 13.6256 2.57745 13.9126 2.72372 14.1657C2.86998 14.4187 3.08022 14.6289 3.33333 14.775L9.16667 18.1083C9.42003 18.2546 9.70744 18.3316 10 18.3316C10.2926 18.3316 10.58 18.2546 10.8333 18.1083L16.6667 14.775C16.9198 14.6289 17.13 14.4187 17.2763 14.1657C17.4225 13.9126 17.4997 13.6256 17.5 13.3333Z" />
            <path d="M2.72498 5.79999L9.99998 10.0083L17.275 5.79999"/>
            <path d="M10 18.4V10"/>
        </g>
    </g>
</symbol>
<symbol id="check" viewBox="0 0 20 20" version="1.1" xmlns="http://www.w3.org/2000/svg" xmlns:xlink="http://www.w3.org/1999/xlink">
    <title>Iconly/Curved/Arrow - check</title>
     <g fill="none" stroke-width="1.5" stroke-linecap="round" stroke-linejoin="round" clip-path="url(#clip0_306_247)">
        <g>
            <path d="M18.3334 9.23336V10C18.3323 11.797 17.7504 13.5456 16.6745 14.9849C15.5985 16.4242 14.0861 17.4771 12.3628 17.9866C10.6395 18.4961 8.79774 18.4349 7.11208 17.8122C5.42642 17.1894 3.98723 16.0384 3.00915 14.5309C2.03108 13.0234 1.56651 11.2401 1.68475 9.44696C1.80299 7.65383 2.49769 5.94697 3.66525 4.58092C4.83281 3.21488 6.41068 2.26285 8.16351 1.86682C9.91635 1.47079 11.7502 1.65198 13.3917 2.38336"/>
            <path d="M18.3333 3.33331L10 11.675L7.5 9.17498" />
        </g>
    </g>
    <defs>
        <clipPath id="clip0_306_247">
            <rect fill="none"/>
        </clipPath>
    </defs>
</symbol>
<symbol id="pie" viewBox="0 0 20 20" version="1.1" xmlns="http://www.w3.org/2000/svg" xmlns:xlink="http://www.w3.org/1999/xlink">
    <title>Iconly/Curved/Arrow - pie</title>
     <g fill="none" stroke-width="1.5" stroke-linecap="round" stroke-linejoin="round">
        <g>
            <path d="M17.675 13.2417C17.1448 14.4954 16.3156 15.6002 15.2599 16.4594C14.2041 17.3187 12.954 17.9062 11.6187 18.1707C10.2834 18.4351 8.90368 18.3685 7.60011 17.9765C6.29655 17.5845 5.10884 16.8792 4.14084 15.9222C3.17283 14.9652 2.454 13.7856 2.04719 12.4866C1.64037 11.1876 1.55796 9.80874 1.80715 8.47053C2.05635 7.13232 2.62957 5.87553 3.4767 4.81003C4.32382 3.74453 5.41906 2.90277 6.66666 2.35834" />
    <path d="M18.3333 10C18.3333 8.90567 18.1178 7.82204 17.699 6.81099C17.2802 5.79994 16.6664 4.88129 15.8926 4.10746C15.1187 3.33364 14.2001 2.71981 13.189 2.30102C12.178 1.88224 11.0943 1.66669 10 1.66669V10H18.3333Z"/>
        </g>
    </g>
    <defs>
        <clipPath id="clip0_306_251">
            <rect fill="none"/>
        </clipPath>
    </defs>
</symbol>
<symbol id="plus" viewBox="0 0 11 11" version="1.1" xmlns="http://www.w3.org/2000/svg" xmlns:xlink="http://www.w3.org/1999/xlink">
    <title>Iconly/Curved/Arrow - plus</title>
     <g fill="none">
        <g>
            <path d="M5.02201 1.92969H5.64484C5.7002 1.92969 5.72788 1.95737 5.72788 2.01273V9.3206C5.72788 9.37596 5.7002 9.40365 5.64484 9.40365H5.02201C4.96665 9.40365 4.93896 9.37596 4.93896 9.3206V2.01273C4.93896 1.95737 4.96665 1.92969 5.02201 1.92969Z"/>
            <path d="M1.8455 5.27222H8.82119C8.87655 5.27222 8.90423 5.2999 8.90423 5.35526V5.97809C8.90423 6.03345 8.87655 6.06113 8.82119 6.06113H1.8455C1.79013 6.06113 1.76245 6.03345 1.76245 5.97809V5.35526C1.76245 5.2999 1.79013 5.27222 1.8455 5.27222Z" />
        </g>
    </g>
</symbol>
<symbol id="minus" viewBox="0 0 12 11" version="1.1" xmlns="http://www.w3.org/2000/svg" xmlns:xlink="http://www.w3.org/1999/xlink">
    <title>Iconly/Curved/Arrow - minus</title>
     <g fill="none">
        <g>
            <path d="M2.80737 5.22418H9.00799V6.10999H2.80737V5.22418Z"/>
        </g>
    </g>
</symbol>
<symbol id="heart" viewBox="0 0 24 22" version="1.1" xmlns="http://www.w3.org/2000/svg" xmlns:xlink="http://www.w3.org/1999/xlink">
    <title>Iconly/Curved/Arrow - heart</title>
     <g stroke-width="2" stroke-linecap="round" stroke-linejoin="round">
        <g>
            <path d="M20.8401 3.60999C20.3294 3.099 19.7229 2.69364 19.0555 2.41708C18.388 2.14052 17.6726 1.99817 16.9501 1.99817C16.2276 1.99817 15.5122 2.14052 14.8448 2.41708C14.1773 2.69364 13.5709 3.099 13.0601 3.60999L12.0001 4.66999L10.9401 3.60999C9.90843 2.5783 8.50915 1.9987 7.05012 1.9987C5.59109 1.9987 4.19181 2.5783 3.16012 3.60999C2.12843 4.64169 1.54883 6.04096 1.54883 7.49999C1.54883 8.95903 2.12843 10.3583 3.16012 11.39L4.22012 12.45L12.0001 20.23L19.7801 12.45L20.8401 11.39C21.3511 10.8792 21.7565 10.2728 22.033 9.60535C22.3096 8.93789 22.4519 8.22248 22.4519 7.49999C22.4519 6.77751 22.3096 6.0621 22.033 5.39464C21.7565 4.72718 21.3511 4.12075 20.8401 3.60999V3.60999Z" />
        </g>
    </g>
</symbol>
<symbol id="Arrow--Down" viewBox="0 0 8 4" version="1.1" xmlns="http://www.w3.org/2000/svg" xmlns:xlink="http://www.w3.org/1999/xlink">
    <title>Iconly/Curved/Arrow - Arrow-down</title>
     <g fill="none" stroke-linecap="round" stroke-linejoin="round">
        <g>
            <path d="M6.91666 0.541687L4 3.45835L1.08333 0.541687"/>
        </g>
    </g>
</symbol>
<symbol id="Weather--cloud" viewBox="0 0 24 24" version="1.1" xmlns="http://www.w3.org/2000/svg" xmlns:xlink="http://www.w3.org/1999/xlink">
    <title>Iconly/Curved/Arrow - Weather</title>
     <g fill="none" stroke="white" stroke-width="1.5" stroke-linecap="round">
        <g>
            <path id="sq1" d="M17.1356 20C20.0424 20 22 17.6122 22 14.6667C22 12.4665 20.6853 10.5776 18.8086 9.76241C18.4665 6.52713 15.5488 4 12 4C8.22121 4 5.15789 6.86538 5.15789 10.4C5.15789 10.4908 5.15992 10.5811 5.16392 10.671C3.32099 11.3282 2 13.1078 2 15.2C2 17.851 3.82836 20 6.44444 20"/>
            <path id="sq2" d="M10.7 16L9.70001 17.7321M14.1641 18L13.1641 19.7321M10.9321 19.5981L9.93207 21.3301" stroke-opacity="0.4"/>
        </g>
    </g>
</symbol>
<symbol id="star" viewBox="0 0 24 24" version="1.1" xmlns="http://www.w3.org/2000/svg" xmlns:xlink="http://www.w3.org/1999/xlink">
    <title>Iconly/Curved/Arrow - Star</title>
     <g fill="none" stroke-linecap="round" stroke-linejoin="round" stroke-width="1.5" transform="translate(2.5 3)">
        <g>
            <path d="M10.2135354,0.441329894 L12.5301907,5.09668871 C12.6437709,5.3306716 12.8673229,5.49423715 13.1274534,5.53368599 L18.3127795,6.28282419 C18.5232013,6.31151358 18.713271,6.4218659 18.8407265,6.58934431 C18.9681821,6.75682272 19.0224584,6.9675444 18.9914871,7.17465538 C18.9654336,7.34490401 18.8826605,7.50177662 18.7562018,7.62057098 L15.0006864,11.2592422 C14.8108765,11.4385657 14.7257803,11.7002187 14.7744505,11.9548706 L15.679394,17.0828999 C15.7448774,17.5054355 15.4552147,17.9019154 15.0278347,17.9747311 C14.8516089,18.001936 14.6711642,17.9738576 14.5120169,17.8944663 L9.88775575,15.4776038 C9.65675721,15.3522485 9.37670064,15.3522485 9.1457021,15.4776038 L4.49429266,17.9123029 C4.1040442,18.1096521 3.62530757,17.962958 3.41740993,17.5823254 C3.33635184,17.4288523 3.30778438,17.2536748 3.33596502,17.0828999 L4.24090849,11.9548706 C4.28467865,11.7005405 4.20030563,11.441111 4.01467262,11.2592422 L0.23200891,7.62057098 C-0.0773363034,7.31150312 -0.0773363034,6.81484985 0.23200891,6.50578199 C0.358259148,6.3905834 0.515216648,6.31324177 0.684480646,6.28282419 L5.86980673,5.53368599 C6.12870837,5.49136141 6.35105151,5.32868032 6.46706943,5.09668871 L8.78372471,0.441329894 C8.87526213,0.25256864 9.04026912,0.108236628 9.24131794,0.0410719808 C9.44236677,-0.0260926667 9.66241783,-0.0103975019 9.85155801,0.0845974179 C10.0076083,0.16259069 10.1343954,0.287540724 10.2135354,0.441329894 Z"/>
        </g>
    </g>
</symbol>

<symbol id="Home" viewBox="0 0 24 24" version="1.1" xmlns="http://www.w3.org/2000/svg" xmlns:xlink="http://www.w3.org/1999/xlink" xml:space="preserve">
    <title>Iconly/Curved/Home</title>
    <g fill="none" stroke-linecap="round" stroke-linejoin="round" stroke-width="1.5">
        <g transform="translate(2.400000, 2.000000)" stroke-width="2">
            <path d="M6.65721519,18.7714023 L6.65721519,15.70467 C6.65719744,14.9246392 7.29311743,14.2908272 8.08101266,14.2855921 L10.9670886,14.2855921 C11.7587434,14.2855921 12.4005063,14.9209349 12.4005063,15.70467 L12.4005063,15.70467 L12.4005063,18.7809263 C12.4003226,19.4432001 12.9342557,19.984478 13.603038,20 L15.5270886,20 C17.4451246,20 19,18.4606794 19,16.5618312 L19,16.5618312 L19,7.8378351 C18.9897577,7.09082692 18.6354747,6.38934919 18.0379747,5.93303245 L11.4577215,0.685301154 C10.3049347,-0.228433718 8.66620456,-0.228433718 7.51341772,0.685301154 L0.962025316,5.94255646 C0.362258604,6.39702249 0.00738668938,7.09966612 0,7.84735911 L0,16.5618312 C0,18.4606794 1.55487539,20 3.47291139,20 L5.39696203,20 C6.08235439,20 6.63797468,19.4499381 6.63797468,18.7714023 L6.63797468,18.7714023" transform="translate(2.5 2)"/>
        </g>
    </g>
</symbol>

</svg> 